# xmcd
# Track frame offsets:
# 150
# 14114
# 29957
# 47807
# 65413
# 83539
# 101244
# 118655
# 138703
# 154877
# 171361
#
# Disc length: 2577 seconds
# Revision: 0
# Processed by: cddbd v1.5.2PL0 Copyright (c) Steve Scherf et al.
# Submitted via: VisiTrax 2.11.1.266 - For more info visit www.synapsa.com
#
DISCID=a30a0f0b
DTITLE=Ingram. Jack - Big Dreams and High Hopes
DYEAR=2009
DGENRE=Country
TTITLE0=Free
TTITLE1=Barefoot and Crazy
TTITLE2=That's a Man
TTITLE3=Seeing Stars
TTITLE4=Not Giving Up On Me
TTITLE5=Barbie Doll
TTITLE6=Big Dreams and High Hopes
TTITLE7=Heartache
TTITLE8=Man in Your Life
TTITLE9=King of Wasted Time
TTITLE10=In the Corner
EXTD=
EXTT0=
EXTT1=
EXTT2=
EXTT3=
EXTT4=
EXTT5=
EXTT6=
EXTT7=
EXTT8=
EXTT9=
EXTT10=
PLAYORDER=
